<?xml version="1.0" standalone="no"?>
<!DOCTYPE svg PUBLIC "-//W3C//DTD SVG 20010904//EN"
 "http://www.w3.org/TR/2001/REC-SVG-20010904/DTD/svg10.dtd">
<svg version="1.0" xmlns="http://www.w3.org/2000/svg"
 width="152.000000pt" height="182.000000pt" viewBox="0 0 152.000000 182.000000"
 preserveAspectRatio="xMidYMid meet">
<metadata>
Created by potrace 1.10, written by Peter Selinger 2001-2011
</metadata>
<g transform="translate(0.000000,182.000000) scale(0.100000,-0.100000)"
fill="#000000" stroke="none">
<path d="M450 1450 l0 -100 53 0 c87 0 109 32 24 36 l-42 2 -3 66 -3 66 301 0
300 0 0 -65 c0 -45 -4 -65 -12 -66 -116 -8 -116 -7 -120 -209 -2 -91 1 -173 6
-183 8 -16 -2 -17 -169 -15 l-177 3 2 182 c0 111 -3 184 -9 188 -12 7 -20
-367 -10 -425 4 -19 8 -30 9 -25 5 18 8 30 9 43 1 9 42 12 171 12 l171 0 52
-34 c29 -18 63 -44 77 -57 24 -22 94 -123 96 -138 0 -3 3 -13 7 -21 9 -23 27
-93 27 -108 0 -17 -364 -15 -393 2 -11 6 -46 36 -78 67 -33 31 -61 53 -64 50
-2 -4 25 -35 61 -69 35 -35 64 -60 64 -57 0 4 13 -3 29 -14 27 -19 43 -21 220
-21 l191 0 0 37 c0 56 -47 181 -90 237 -32 42 -99 102 -136 122 l-39 20 -3
191 -2 192 70 -6 70 -6 0 101 0 100 -330 1 -330 2 0 -101z"/>
<path d="M499 926 c-69 -51 -159 -190 -159 -245 0 -11 -4 -23 -10 -26 -5 -3
-10 -26 -10 -51 l0 -44 189 0 c112 0 192 4 196 10 11 17 -40 22 -192 18 -82
-3 -153 -3 -159 -1 -17 6 10 115 46 182 30 56 73 103 143 158 59 46 19 45 -44
-1z"/>
<path d="M613 865 c0 -22 2 -30 4 -17 2 12 2 30 0 40 -3 9 -5 -1 -4 -23z"/>
<path d="M625 816 c-4 -10 -4 -21 1 -25 5 -3 16 -19 24 -34 8 -16 16 -24 18
-18 2 7 -3 22 -11 34 -8 13 -17 32 -19 42 -5 19 -5 19 -13 1z"/>
<path d="M710 395 l0 -161 70 0 70 0 -1 145 c0 80 -3 153 -7 161 -5 11 -24 15
-69 16 l-63 1 0 -162z m100 2 l0 -133 -27 2 -28 1 -3 131 -3 132 31 0 30 0 0
-133z"/>
</g>
</svg>
